#!OML:ASF H:\Terrain\Patient Classification 1\Takeo\Monday\TakeoMonday.ASF
:FULLY-SPECIFIED
:DEGREES
50
root 9.98757 16.9555 -21.8738 -3.75449 -0.660422 2.34142
lowerback 6.08363 -0.922854 -2.14349
upperback 3.42458 -1.33446 0.824513
thorax 0.185923 -0.704987 2.12654
lowerneck -12.6529 3.47817 -1.23879
upperneck -2.74064 4.8084 -1.96606
head 1.28077 2.3582 -0.175601
rclavicle -1.61016e-014 8.74653e-015
rhumerus -35.6295 -1.94009 -84.9436
rradius 23.613
rwrist -9.58822
rhand -20.5823 16.9704
rfingers 7.12502
rthumb 5.7776 -12.9308
lclavicle -1.61016e-014 8.74653e-015
lhumerus -24.5498 -2.20591 90.5838
lradius 49.3492
lwrist 27.8265
lhand -23.033 21.3789
lfingers 7.12502
lthumb 3.41124 51.3314
rfemur -25.8511 9.44726 17.3396
rtibia 59.2061
rfoot -11.6624 -14.404
rtoes -14.4583
lfemur -1.18799 -4.44423 -31.2338
ltibia 27.2556
lfoot -19.5862 8.41491
ltoes 0.119253
51
root 9.97702 16.959 -21.7161 -3.69342 -0.210424 2.17431
lowerback 6.17809 -1.04908 -2.10793
upperback 3.25386 -1.50197 0.961065
thorax -0.0306204 -0.784846 2.26103
lowerneck -12.0645 3.43917 -1.17253
upperneck -2.93669 4.73602 -2.10846
head 1.12073 2.32482 -0.248162
rclavicle 1.20762e-014 -6.75868e-015
rhumerus -36.7519 -2.03975 -84.7142
rradius 23.6169
rwrist -9.76807
rhand -20.5876 17.8956
rfingers 7.12502
rthumb 5.77255 -12.0058
lclavicle 1.20762e-014 -6.75868e-015
lhumerus -24.7236 -2.82424 90.8195
lradius 50.8082
lwrist 27.7835
lhand -23.8929 20.7916
lfingers 7.12502
lthumb 2.58084 50.7557
rfemur -26.3055 9.84302 17.2287
rtibia 56.9533
rfoot -12.1128 -14.17
rtoes -12.573
lfemur -0.222295 -4.54209 -31.0345
ltibia 26.4245
lfoot -19.3614 8.18814
ltoes -0.224986
52
root 9.96821 16.9609 -21.5641 -3.39193 0.24691 2.40613
lowerback 5.94928 -1.1832 -2.46096
upperback 3.20623 -1.69402 0.985829
thorax 0.0698565 -0.886243 2.49056
lowerneck -12.1504 3.44976 -1.22216
upperneck -2.84608 4.761 -2.16193
head 1.16531 2.33471 -0.252674
rclavicle -8.54774e-015 8.74653e-015
rhumerus -37.3706 -2.47669 -84.3431
rradius 23.3807
rwrist -9.31489
rhand -20.4287 18.2022
rfingers 7.12502
rthumb 5.92589 -11.6949
lclavicle -8.54774e-015 8.74653e-015
lhumerus -24.3265 -3.35943 90.9696
lradius 51.8273
lwrist 27.689
lhand -24.8218 19.3509
lfingers 7.12502
lthumb 1.6837 49.324
rfemur -27.0078 10.2095 16.5747
rtibia 54.5592
rfoot -12.3208 -14.0856
rtoes -12.1029
lfemur 0.398198 -4.58905 -31.2503
ltibia 25.6242
lfoot -19.0882 7.94722
ltoes -0.2648
53
root 9.95875 16.9581 -21.4062 -3.12282 0.555952 2.93081
lowerback 5.60239 -1.24541 -3.02751
upperback 3.29688 -1.79517 0.831027
thorax 0.376241 -0.94898 2.64348
lowerneck -12.6702 3.4538 -1.22923
upperneck -2.63641 4.78034 -2.10614
head 1.32214 2.33934 -0.220662
rclavicle -2.5345e-015 1.07344e-014
rhumerus -37.7381 -3.2863 -84.0045
rradius 22.9805
rwrist -8.42415
rhand -20.2845 17.6497
rfingers 7.12502
rthumb 6.06516 -12.2435
lclavicle -2.5345e-015 1.07344e-014
lhumerus -23.8264 -3.92816 90.9018
lradius 52.9322
lwrist 27.5819
lhand -24.8036 18.6646
lfingers 7.12502
lthumb 1.70127 48.6375
rfemur -27.6582 10.6776 15.5882
rtibia 52.0077
rfoot -12.3621 -13.9089
rtoes -14.715
lfemur 1.06223 -4.49799 -31.7731
ltibia 24.7799
lfoot -18.9009 7.76984
ltoes -0.691317
54
root 9.94797 16.9622 -21.236 -3.11886 0.827437 2.8965
lowerback 5.48676 -1.29347 -3.02659
upperback 3.33924 -1.85521 0.793949
thorax 0.486951 -0.981055 2.60355
lowerneck -12.58 3.42724 -1.07448
upperneck -2.77635 4.71887 -2.07787
head 1.26372 2.31088 -0.244068
rclavicle 1.8487e-014 1.15295e-014
rhumerus -38.4563 -3.54227 -84.0318
rradius 22.6985
rwrist -8.5804
rhand -20.4635 17.3241
rfingers 7.12502
rthumb 5.89233 -12.5739
lclavicle 1.8487e-014 1.15295e-014
lhumerus -23.9897 -4.60076 90.7955
lradius 54.5802
lwrist 27.5239
lhand -23.265 19.0069
lfingers 7.12502
lthumb 3.18715 48.9628
rfemur -27.7974 11.231 15.3281
rtibia 49.2781
rfoot -12.3211 -13.9355
rtoes -17.4791
lfemur 2.15206 -4.44259 -31.6953
ltibia 23.8212
lfoot -18.7187 7.50471
ltoes -0.793847
55
root 9.93724 16.9803 -21.0672 -3.1432 1.10282 2.78199
lowerback 5.51786 -1.3886 -3.03123
upperback 3.33424 -1.9828 0.848632
thorax 0.475421 -1.04523 2.66925
lowerneck -12.3942 3.46022 -0.987246
upperneck -3.00283 4.74249 -2.04448
head 1.15896 2.32687 -0.25332
rclavicle 1.24737e-014 1.23246e-014
rhumerus -39.0841 -3.77036 -83.9239
rradius 22.2957
rwrist -8.68117
rhand -20.3961 17.4923
rfingers 7.12502
rthumb 5.95742 -12.4039
lclavicle 1.24737e-014 1.23246e-014
lhumerus -24.1325 -5.11227 90.7294
lradius 56.0612
lwrist 27.5838
lhand -21.1777 19.5885
lfingers 7.12502
lthumb 5.20277 49.5046
rfemur -27.856 11.6724 15.1818
rtibia 46.4496
rfoot -12.4496 -14.0175
rtoes -17.9002
lfemur 3.27838 -4.52453 -31.5319
ltibia 22.8357
lfoot -18.5383 7.19614
ltoes -0.372539
